<?xml version="1.0" encoding="UTF-8" standalone="no"?>
<!-- Created with Inkscape (http://www.inkscape.org/) -->
<svg version="1.1" id="svg2244" width="2116" height="276" viewBox="0 0 2116.0001 276" sodipodi:docname="stura-logo-breit-white.svg" inkscape:version="1.3.2 (091e20ef0f, 2023-11-25)" xmlns:inkscape="http://www.inkscape.org/namespaces/inkscape" xmlns:sodipodi="http://sodipodi.sourceforge.net/DTD/sodipodi-0.dtd" xmlns="http://www.w3.org/2000/svg" xmlns:svg="http://www.w3.org/2000/svg">
  <defs id="defs2248"/>
  <sodipodi:namedview id="namedview2246" pagecolor="#ffffff" bordercolor="#000000" borderopacity="0.25" inkscape:showpageshadow="2" inkscape:pageopacity="0.0" inkscape:pagecheckerboard="0" inkscape:deskcolor="#d1d1d1" showgrid="false" inkscape:zoom="0.62353473" inkscape:cx="134.71583" inkscape:cy="190.84743" inkscape:window-width="1920" inkscape:window-height="1008" inkscape:window-x="0" inkscape:window-y="0" inkscape:window-maximized="1" inkscape:current-layer="g1">
    <inkscape:page x="0" y="0" id="page2250" width="2116" height="276" margin="0" bleed="0"/>
  </sodipodi:namedview>
  <g id="g2252" inkscape:groupmode="layer" inkscape:label="Page 1" transform="matrix(1.3333333,0,0,1.3333333,0,1.0782152e-5)">
    <g id="g2254">
      <g id="g1" transform="translate(-26.892517,-28.482505)">
        <g id="g2" transform="translate(0.74999934,-9.7500005)">
          <path d="m 379.25,225.383 -3.633,-1.945 -1.754,-0.911 -1.816,-0.972 -1.688,-0.977 -1.754,-0.973 -1.687,-0.91 -1.688,-0.972 -1.625,-0.973 -1.621,-0.977 -1.625,-0.972 -1.621,-0.973 -1.625,-0.976 -1.558,-0.973 -1.555,-1.039 -1.559,-0.973 -1.558,-1.039 -1.492,-1.039 -1.496,-0.973 -1.559,-1.039 -1.492,-1.105 -1.492,-1.039 -1.497,-1.035 -1.492,-1.106 -1.425,-1.105 -1.493,-1.102 -1.496,-1.168 -1.426,-1.105 -1.496,-1.168 -1.492,-1.168 -1.43,-1.168 -1.492,-1.235 2.403,-0.453 2.336,-0.519 2.402,-0.649 2.34,-0.652 2.336,-0.777 2.273,-0.911 2.27,-0.91 2.273,-0.972 2.207,-1.102 2.207,-1.172 2.207,-1.168 2.145,-1.297 2.074,-1.296 2.016,-1.364 2.011,-1.429 2.012,-1.493 3.766,-3.117 1.82,-1.625 1.75,-1.621 1.687,-1.687 1.688,-1.754 1.559,-1.754 1.558,-1.817 1.43,-1.816 1.426,-1.82 1.3,-1.883 1.235,-1.883 1.168,-1.883 1.101,-1.945 1.039,-1.883 0.91,-1.949 v -0.129 l -0.195,-0.195 0.195,-0.129 0.907,7.531 0.586,6.688 0.324,6.296 0.129,6.168 -0.063,6.493 -0.261,7.074 -0.387,8.051 -0.52,9.347 14.93,-5.129 0.195,-3.441 0.067,-4.609 0.062,-5.711 -0.129,-6.622 -0.195,-7.207 -0.324,-7.597 -0.453,-7.856 -0.653,-7.918 -0.839,-7.726 -0.977,-7.336 -1.234,-6.75 -1.426,-5.973 -1.625,-4.937 -1.946,-3.762 -2.144,-2.34 -2.465,-0.715 -3.379,0.262 -3.308,0.453 -3.313,0.586 -3.309,0.715 -3.312,0.844 -3.246,0.972 -3.246,1.168 -3.18,1.235 -3.183,1.363 -3.118,1.492 -3.05,1.625 -2.985,1.688 -2.988,1.816 -2.856,1.883 -2.855,2.012 -2.793,2.078 -2.66,2.144 -2.598,2.207 -2.597,2.27 -2.403,2.34 -2.402,2.402 -2.27,2.465 -2.144,2.531 -2.078,2.531 -2.012,2.535 -1.816,2.661 -1.754,2.597 -1.621,2.66 -1.497,2.665 -1.425,2.66 -1.235,2.726 -1.105,2.66 -1.879,-2.336 -1.949,-2.402 -1.883,-2.402 -1.949,-2.403 -1.946,-2.464 -1.949,-2.469 -1.945,-2.465 -1.949,-2.469 -1.95,-2.531 -2.011,-2.531 -2.012,-2.598 -2.012,-2.531 -2.011,-2.598 -2.079,-2.66 -2.078,-2.664 -2.144,-2.66 2.273,-1.688 2.402,-1.754 2.469,-1.754 2.594,-1.816 2.598,-1.949 2.726,-1.945 2.66,-2.012 2.731,-2.016 2.66,-2.14 2.727,-2.141 2.66,-2.211 2.535,-2.336 2.531,-2.273 2.465,-2.403 2.34,-2.398 2.207,-2.535 2.078,-2.532 1.945,-2.593 1.754,-2.598 1.621,-2.727 1.364,-2.726 1.171,-2.793 0.973,-2.856 0.715,-2.921 0.387,-2.922 0.195,-2.989 -0.129,-3.05 -0.453,-3.118 -0.781,-3.113 -1.168,-3.18 -1.43,-3.25 -1.879,-3.308 -0.976,-1.297 -1.297,-1.172 -1.559,-1.101 -1.754,-0.977 -2.078,-0.906 -2.269,-0.781 -2.536,-0.715 -2.66,-0.582 -2.855,-0.52 -3.051,-0.391 -3.246,-0.324 -3.313,-0.258 -3.504,-0.132 -3.57,-0.063 -3.637,0.063 -3.765,0.066 -3.832,0.258 -3.828,0.262 -3.961,0.39 -3.895,0.453 -3.894,0.52 -3.961,0.586 -3.895,0.648 -3.832,0.778 -3.832,0.843 -3.699,0.844 -3.637,0.977 -3.57,1.039 -3.375,1.101 -3.309,1.168 -3.183,1.235 -2.985,1.3 -1.949,22.071 2.012,-1.621 1.883,-1.496 1.82,-1.364 1.75,-1.168 1.691,-1.101 1.621,-0.977 1.559,-0.906 1.559,-0.844 2.984,-1.43 1.559,-0.585 1.492,-0.583 1.496,-0.585 1.621,-0.52 1.559,-0.519 1.687,-0.516 -0.777,55.894 -11.235,2.079 0.52,10.71 0.519,9.672 0.391,8.7 0.324,7.793 0.129,7.011 v 6.231 l -0.258,5.453 -0.519,4.871 -0.781,4.285 -1.036,3.699 -1.429,3.246 -1.754,2.856 -2.207,2.469 -2.598,2.207 -3.113,1.945 -3.574,1.82 -3.633,1.168 -3.051,-0.066 -2.469,-1.231 -1.949,-2.211 -1.492,-3.113 -1.102,-4.027 -0.715,-4.805 -0.324,-5.516 -0.129,-6.167 0.129,-6.622 0.258,-7.14 0.457,-7.469 0.52,-7.789 0.519,-7.984 0.52,-8.118 0.453,-8.113 -14.348,2.856 -0.066,1.621 -0.52,4.48 -0.777,6.754 -0.844,8.438 -0.91,9.543 -0.648,10.195 -0.325,10.062 0.196,9.543 -2.145,2.27 -2.078,1.754 -1.883,1.301 -1.816,0.843 -1.754,0.453 -1.555,0.129 -1.496,-0.257 -1.363,-0.586 -1.297,-0.844 -1.106,-1.102 -1.101,-1.301 -0.91,-1.558 -0.844,-1.688 -0.715,-1.816 -0.648,-1.949 -0.52,-2.012 -1.492,-7.727 -0.977,-7.855 -0.386,-8.113 0.062,-8.442 0.649,-8.828 1.105,-9.219 1.625,-9.8 2.141,-10.453 0.195,-0.067 0.324,-0.129 0.453,-0.066 0.653,-0.129 0.711,-0.129 0.843,-0.129 0.977,-0.133 1.039,-0.129 1.102,-0.129 1.168,-0.128 1.234,-0.133 1.297,-0.063 1.301,-0.066 1.363,-0.067 1.297,-0.062 h 1.363 l 2.34,-14.152 -13.637,2.921 0.848,-3.636 0.906,-3.442 0.977,-3.375 0.972,-3.246 1.039,-3.246 1.102,-3.246 1.168,-3.312 1.172,-3.442 -17.66,7.856 -6.168,23.113 -14.282,4.867 -1.363,11.106 1.039,-0.391 0.973,-0.324 0.91,-0.324 0.844,-0.262 0.843,-0.324 0.778,-0.196 0.781,-0.258 0.777,-0.261 0.715,-0.196 0.715,-0.191 0.711,-0.195 0.715,-0.196 0.715,-0.261 0.781,-0.196 0.711,-0.191 0.781,-0.262 -0.262,0.778 -0.453,2.078 -0.648,3.246 -0.715,4.351 -0.777,5.454 -0.715,6.359 -0.653,7.34 -0.515,8.179 -0.91,-2.144 -1.168,-2.078 -1.43,-2.074 -1.559,-2.016 -1.753,-2.012 -2.012,-1.945 -2.074,-1.949 -2.274,-1.95 -2.336,-1.882 -2.535,-1.883 -2.598,-1.817 -2.66,-1.816 -2.726,-1.82 -2.789,-1.75 -2.86,-1.754 -2.855,-1.754 -2.856,-1.688 -2.859,-1.687 -2.855,-1.688 -2.79,-1.687 -2.726,-1.625 -2.664,-1.621 -2.598,-1.625 -2.531,-1.621 -2.336,-1.559 -2.273,-1.559 -2.141,-1.558 -1.949,-1.559 -1.754,-1.558 -1.621,-1.492 -1.364,-1.559 -1.168,-1.492 -1.039,-1.688 -0.781,-1.621 -0.519,-1.625 -0.258,-1.558 v -1.493 l 0.195,-1.496 0.391,-1.425 0.515,-1.297 0.782,-1.301 0.91,-1.168 1.039,-1.168 1.168,-1.039 1.297,-0.91 1.363,-0.844 1.492,-0.777 1.559,-0.649 1.625,-0.519 1.621,-0.457 1.754,-0.258 1.687,-0.196 1.754,-0.066 1.688,0.129 1.687,0.195 1.625,0.391 1.621,0.519 1.559,0.715 1.426,0.844 1.363,1.039 1.234,1.168 1.168,1.363 0.977,1.559 0.844,1.754 17.785,-7.793 -1.817,-3.117 -2.078,-2.856 -2.207,-2.597 -2.465,-2.27 -2.531,-2.016 -2.727,-1.75 -2.792,-1.492 -2.922,-1.234 -2.989,-0.973 -3.05,-0.715 -3.114,-0.457 -3.117,-0.257 h -3.117 l -3.117,0.257 -3.114,0.457 -2.988,0.649 -2.984,0.906 -2.922,1.105 -2.793,1.235 -2.66,1.492 -2.598,1.688 -2.336,1.882 -2.207,2.079 -2.015,2.207 -1.817,2.402 -1.625,2.531 -1.297,2.727 -1.101,2.855 -0.782,3.055 -0.519,3.18 -0.129,3.312 0.129,3.438 0.519,2.793 0.911,2.792 1.363,2.661 1.687,2.597 2.012,2.598 2.336,2.465 2.598,2.469 2.859,2.402 3.113,2.402 3.246,2.403 3.442,2.335 3.57,2.274 3.637,2.336 3.765,2.269 3.7,2.34 3.832,2.274 7.398,4.672 3.637,2.339 3.508,2.399 3.375,2.402 3.246,2.469 2.984,2.531 2.793,2.531 2.531,2.661 2.207,2.664 1.883,2.726 1.625,2.856 1.168,2.859 0.778,3.051 0.324,3.051 -0.129,3.179 -0.52,3.375 -0.843,3.055 -1.106,2.855 -1.297,2.598 -1.558,2.402 -1.817,2.141 -2.011,1.949 -2.208,1.688 -2.402,1.492 -2.531,1.234 -2.731,1.102 -2.855,0.844 -3.051,0.715 -3.117,0.519 -3.18,0.262 -3.375,0.191 -3.379,-0.062 -3.503,-0.196 -3.504,-0.324 -3.571,-0.519 -3.574,-0.649 -3.633,-0.844 -3.636,-0.91 -3.571,-1.105 -3.57,-1.231 -3.57,-1.3 -3.508,-1.426 -3.442,-1.559 -3.308,-1.687 -3.246,-1.754 -3.18,-1.883 -3.055,-1.949 -19.605,18.894 7.402,3.309 7.207,2.922 6.946,2.597 6.687,2.207 6.426,1.95 6.234,1.621 5.973,1.363 5.777,1.039 5.52,0.777 5.258,0.52 5.062,0.262 4.867,0.062 4.61,-0.191 4.351,-0.457 4.156,-0.582 3.957,-0.844 3.766,-0.977 3.508,-1.101 3.312,-1.301 3.114,-1.492 2.855,-1.559 2.727,-1.687 2.468,-1.817 2.274,-1.882 2.074,-2.012 1.883,-2.078 1.691,-2.145 1.426,-2.14 1.301,-2.207 1.101,-2.274 0.911,-2.207 0.714,-2.273 0.973,3.183 1.106,2.922 1.23,2.789 1.43,2.469 1.558,2.207 1.754,1.949 1.883,1.555 2.074,1.172 2.274,0.777 2.468,0.324 2.661,-0.195 2.855,-0.648 3.051,-1.168 3.312,-1.817 3.504,-2.402 3.703,-2.988 1.235,3.246 1.363,2.921 1.492,2.661 1.559,2.339 1.621,2.012 1.687,1.817 1.821,1.496 1.816,1.23 1.883,1.039 2.012,0.782 1.949,0.519 2.078,0.387 2.012,0.133 2.078,-0.067 2.14,-0.195 2.079,-0.453 2.14,-0.52 2.078,-0.715 2.145,-0.843 2.074,-1.039 2.016,-1.106 2.011,-1.168 2.012,-1.363 1.949,-1.363 1.883,-1.493 1.817,-1.558 1.816,-1.621 1.687,-1.625 1.626,-1.754 1.492,-1.688 1.429,-1.75 1.364,-1.754 1.234,15.645 20.32,-1.297 -1.172,-10.062 -0.906,-8.895 -0.715,-8.18 -0.586,-7.66 -0.515,-7.531 -0.457,-7.66 -0.453,-8.246 -0.52,-8.961 2.985,4.285 6.101,8.312 3.055,4.09 3.113,4.024 3.117,3.961 3.117,3.894 3.18,3.832 3.184,3.699 3.179,3.7 3.18,3.636 3.184,3.504 3.179,3.442 3.118,3.375 3.179,3.312 3.117,3.18 3.18,3.117 3.051,3.051 3.117,2.922 3.051,2.859 3.055,2.789 2.984,2.664 2.922,2.594 2.922,2.469 2.855,2.402 2.856,2.273 2.726,2.207 2.727,2.075 2.664,1.949 2.594,1.883 2.535,1.754 2.465,1.621 z m 0.391,-98.809 -3.309,0.129 -3.246,0.391 -3.184,0.582 -3.113,0.91 -3.117,1.105 -2.988,1.297 -2.918,1.492 -2.922,1.625 -2.731,1.817 -2.722,1.883 -2.598,2.078 -2.469,2.144 -2.402,2.141 -2.27,2.27 -2.207,2.339 -2.015,2.274 -1.946,2.336 -1.754,2.336 -1.625,2.273 -1.492,2.207 -1.363,2.141 -1.234,2.078 -1.036,1.949 -0.847,1.817 -0.711,1.687 -0.52,1.559 -0.324,1.3 -0.133,1.168 0.067,0.973 0.261,0.648 0.454,0.454 0.648,0.195 h 3.117 l 3.051,-0.324 3.051,-0.52 2.984,-0.844 2.988,-1.039 2.922,-1.297 2.856,-1.429 2.855,-1.621 2.731,-1.821 2.66,-1.882 2.598,-2.075 2.531,-2.144 2.402,-2.207 2.336,-2.274 2.207,-2.336 2.078,-2.402 1.949,-2.336 1.883,-2.34 1.688,-2.336 1.554,-2.207 1.43,-2.207 1.301,-2.14 1.101,-1.95 0.911,-1.882 0.777,-1.688 0.586,-1.559 0.387,-1.363 0.195,-1.168 -0.063,-0.91 -0.195,-0.711 -0.453,-0.457 z m -68.297,-57.066 -0.453,-1.688 -0.586,-1.492 -0.778,-1.43 -0.972,-1.234 -1.106,-1.168 -1.297,-1.039 -1.363,-0.906 -1.492,-0.844 -1.625,-0.715 -1.754,-0.586 -1.75,-0.519 -1.883,-0.453 -1.949,-0.391 -1.945,-0.324 -2.016,-0.196 -2.078,-0.195 -2.012,-0.062 -2.078,-0.067 -2.012,-0.066 -2.078,0.066 -1.945,0.067 -1.949,0.062 -1.883,0.133 -1.817,0.129 -1.753,0.129 -1.622,0.195 -1.558,0.129 -1.43,0.129 -1.297,0.195 -1.168,0.133 -0.976,0.129 -0.844,0.062 0.262,13.504 0.129,13.117 0.129,13.047 0.261,13.438 1.426,-0.453 1.559,-0.586 1.687,-0.711 1.754,-0.781 1.816,-0.844 1.883,-0.973 1.949,-1.105 2.012,-1.102 4.156,-2.469 2.079,-1.363 2.14,-1.363 2.078,-1.492 2.078,-1.43 2.079,-1.559 2.011,-1.492 1.946,-1.558 1.882,-1.621 1.883,-1.559 1.754,-1.625 1.621,-1.555 1.559,-1.625 1.43,-1.558 1.3,-1.559 1.168,-1.492 1.039,-1.492 0.844,-1.496 0.711,-1.36 0.523,-1.363 0.321,-1.301 0.133,-1.234 -0.133,-1.168" style="fill:#ffcc00;fill-opacity:1;fill-rule:evenodd;stroke:none" id="path2256"/>
          <path d="m 553.535,109.672 c 0,-2.844 -1.047,-5.156 -3.14,-6.938 -2.094,-1.781 -4.719,-3.406 -7.875,-4.875 -3.157,-1.468 -6.579,-2.976 -10.266,-4.531 -3.688,-1.551 -7.117,-3.461 -10.281,-5.734 -3.157,-2.27 -5.782,-5.094 -7.875,-8.469 -2.086,-3.383 -3.125,-7.703 -3.125,-12.953 0,-4.531 0.754,-8.461 2.265,-11.797 1.508,-3.332 3.664,-6.109 6.469,-8.328 2.801,-2.227 6.113,-3.875 9.938,-4.938 3.832,-1.07 8.101,-1.609 12.812,-1.609 5.426,0 10.539,0.469 15.344,1.406 4.801,0.93 8.758,2.282 11.875,4.063 l -5.735,15.343 c -1.961,-1.25 -4.898,-2.382 -8.812,-3.406 -3.906,-1.019 -8.133,-1.531 -12.672,-1.531 -4.273,0 -7.543,0.844 -9.812,2.531 -2.262,1.688 -3.391,3.961 -3.391,6.813 0,2.668 1.039,4.89 3.125,6.672 2.094,1.773 4.719,3.418 7.875,4.937 3.156,1.512 6.578,3.07 10.266,4.672 3.695,1.594 7.125,3.527 10.281,5.797 3.156,2.262 5.773,5.062 7.859,8.406 2.094,3.336 3.141,7.492 3.141,12.469 0,4.98 -0.824,9.273 -2.469,12.875 -1.637,3.594 -3.945,6.594 -6.922,9 -2.98,2.406 -6.586,4.187 -10.812,5.344 -4.231,1.156 -8.875,1.734 -13.938,1.734 -6.68,0 -12.555,-0.625 -17.625,-1.875 -5.062,-1.25 -8.793,-2.492 -11.187,-3.734 l 5.859,-15.61 c 0.977,0.532 2.242,1.11 3.797,1.735 1.562,0.625 3.32,1.203 5.281,1.734 1.957,0.531 4.024,0.98 6.203,1.344 2.176,0.355 4.422,0.531 6.735,0.531 5.425,0 9.582,-0.91 12.468,-2.734 2.895,-1.832 4.344,-4.614 4.344,-8.344 z" style="fill:#ffffff;fill-opacity:1;fill-rule:nonzero;stroke:none" id="path2258"/>
          <path d="m 576.613,68.047 h 9.203 V 55.5 l 17.344,-4.922 v 17.469 h 16.266 V 82.719 H 603.16 v 25.609 c 0,4.625 0.461,7.945 1.391,9.953 0.937,2 2.695,3 5.281,3 1.77,0 3.301,-0.176 4.594,-0.531 1.289,-0.363 2.738,-0.898 4.344,-1.609 l 3.062,13.343 c -2.398,1.157 -5.199,2.137 -8.406,2.938 -3.199,0.801 -6.446,1.203 -9.735,1.203 -6.136,0 -10.652,-1.578 -13.546,-4.734 -2.887,-3.164 -4.329,-8.348 -4.329,-15.547 V 82.719 h -9.203 z" style="fill:#ffffff;fill-opacity:1;fill-rule:nonzero;stroke:none" id="path2260"/>
          <path d="m 646.781,68.047 v 37.891 c 0,5.429 0.645,9.343 1.938,11.75 1.289,2.398 3.801,3.593 7.531,3.593 3.289,0 6.023,-0.976 8.203,-2.937 2.176,-1.957 3.801,-4.36 4.875,-7.203 V 68.047 h 17.344 v 46.422 c 0,3.648 0.176,7.23 0.531,10.75 0.352,3.511 0.883,6.687 1.594,9.531 h -13.063 l -3.078,-9.875 h -0.531 c -2.043,3.387 -4.887,6.195 -8.531,8.422 -3.649,2.219 -7.961,3.328 -12.938,3.328 -3.386,0 -6.414,-0.449 -9.078,-1.344 -2.668,-0.883 -4.89,-2.347 -6.672,-4.39 -1.781,-2.051 -3.14,-4.813 -4.078,-8.282 -0.93,-3.468 -1.39,-7.828 -1.39,-13.078 V 68.047 Z" style="fill:#ffffff;fill-opacity:1;fill-rule:nonzero;stroke:none" id="path2262"/>
          <path d="m 758.57,111.266 c 0,3.742 0.039,7.48 0.125,11.218 0.094,3.731 0.5,7.868 1.219,12.407 h -12.406 l -2.406,-8.672 h -0.532 c -1.781,3.105 -4.34,5.617 -7.672,7.531 -3.336,1.914 -7.273,2.875 -11.812,2.875 -8.356,0 -14.844,-2.754 -19.469,-8.266 -4.625,-5.519 -6.937,-14.148 -6.937,-25.89 0,-11.383 2.578,-20.235 7.734,-26.547 5.156,-6.313 12.711,-9.469 22.672,-9.469 2.758,0 5.031,0.156 6.812,0.469 1.782,0.305 3.555,0.812 5.329,1.531 V 41.359 h 17.343 z m -29.484,10.672 c 3.383,0 6.055,-0.821 8.016,-2.469 1.957,-1.645 3.332,-4.02 4.125,-7.125 V 84.062 c -1.243,-0.976 -2.618,-1.71 -4.125,-2.203 -1.512,-0.488 -3.469,-0.734 -5.875,-0.734 -4.899,0 -8.571,1.648 -11.016,4.937 -2.438,3.293 -3.656,8.938 -3.656,16.938 0,5.688 1,10.266 3,13.734 2,3.469 5.175,5.204 9.531,5.204 z" style="fill:#ffffff;fill-opacity:1;fill-rule:nonzero;stroke:none" id="path2264"/>
          <path d="m 775.254,68.047 h 17.344 v 66.703 h -17.344 z m -2.547,-18.813 c 0,-2.57 0.953,-4.769 2.859,-6.593 1.914,-1.832 4.567,-2.75 7.954,-2.75 3.375,0 6.109,0.918 8.203,2.75 2.093,1.824 3.14,4.023 3.14,6.593 0,2.586 -1.047,4.746 -3.14,6.485 -2.094,1.73 -4.828,2.593 -8.203,2.593 -3.387,0 -6.04,-0.863 -7.954,-2.593 -1.906,-1.739 -2.859,-3.899 -2.859,-6.485 z" style="fill:#ffffff;fill-opacity:1;fill-rule:nonzero;stroke:none" id="path2266"/>
          <path d="m 863.031,129.016 c -2.668,2.136 -6.293,3.937 -10.875,5.406 -4.586,1.469 -9.453,2.203 -14.609,2.203 -10.762,0 -18.633,-3.133 -23.609,-9.406 -4.981,-6.27 -7.469,-14.875 -7.469,-25.813 0,-11.75 2.801,-20.554 8.406,-26.422 5.602,-5.875 13.473,-8.812 23.609,-8.812 3.375,0 6.661,0.449 9.86,1.344 3.207,0.886 6.054,2.355 8.547,4.406 2.488,2.043 4.488,4.797 6,8.266 1.507,3.468 2.265,7.781 2.265,12.937 0,1.867 -0.109,3.867 -0.328,6 -0.219,2.137 -0.555,4.359 -1,6.672 h -40.016 c 0.258,5.605 1.704,9.836 4.329,12.687 2.625,2.844 6.875,4.266 12.75,4.266 3.644,0 6.91,-0.555 9.797,-1.672 2.894,-1.113 5.097,-2.25 6.609,-3.406 z M 838.219,80.047 c -4.543,0 -7.903,1.359 -10.078,4.078 -2.18,2.711 -3.493,6.336 -3.938,10.875 h 24.813 c 0.363,-4.801 -0.371,-8.492 -2.204,-11.078 -1.824,-2.582 -4.687,-3.875 -8.593,-3.875 z" style="fill:#ffffff;fill-opacity:1;fill-rule:nonzero;stroke:none" id="path2268"/>
          <path d="m 914.254,84.328 c -2.762,-0.976 -5.25,-1.469 -7.469,-1.469 -3.117,0 -5.719,0.825 -7.812,2.469 -2.086,1.649 -3.481,3.758 -4.188,6.328 V 134.75 H 877.441 V 68.047 h 13.469 l 2,8.812 h 0.531 c 1.508,-3.289 3.555,-5.828 6.141,-7.609 2.582,-1.781 5.609,-2.672 9.078,-2.672 2.313,0 4.93,0.492 7.86,1.469 z" style="fill:#ffffff;fill-opacity:1;fill-rule:nonzero;stroke:none" id="path2270"/>
          <path d="m 977.625,129.016 c -2.668,2.136 -6.293,3.937 -10.875,5.406 -4.586,1.469 -9.453,2.203 -14.609,2.203 -10.762,0 -18.633,-3.133 -23.61,-9.406 -4.98,-6.27 -7.469,-14.875 -7.469,-25.813 0,-11.75 2.801,-20.554 8.407,-26.422 5.601,-5.875 13.472,-8.812 23.609,-8.812 3.375,0 6.66,0.449 9.86,1.344 3.207,0.886 6.054,2.355 8.546,4.406 2.489,2.043 4.489,4.797 6,8.266 1.508,3.468 2.266,7.781 2.266,12.937 0,1.867 -0.109,3.867 -0.328,6 -0.219,2.137 -0.555,4.359 -1,6.672 h -40.016 c 0.258,5.605 1.703,9.836 4.328,12.687 2.625,2.844 6.875,4.266 12.75,4.266 3.645,0 6.911,-0.555 9.797,-1.672 2.895,-1.113 5.098,-2.25 6.61,-3.406 z M 952.812,80.047 c -4.542,0 -7.902,1.359 -10.078,4.078 -2.179,2.711 -3.492,6.336 -3.937,10.875 h 24.812 c 0.364,-4.801 -0.371,-8.492 -2.203,-11.078 -1.824,-2.582 -4.687,-3.875 -8.594,-3.875 z" style="fill:#ffffff;fill-opacity:1;fill-rule:nonzero;stroke:none" id="path2272"/>
          <path d="M 1032.848,134.75 V 96.859 c 0,-5.425 -0.782,-9.336 -2.344,-11.734 -1.555,-2.406 -4.195,-3.609 -7.922,-3.609 -3.293,0 -6.074,0.961 -8.344,2.875 -2.261,1.906 -3.883,4.289 -4.859,7.14 V 134.75 H 992.035 V 68.047 h 13.735 l 2,8.812 h 0.531 c 2.051,-2.851 4.765,-5.347 8.14,-7.484 3.383,-2.133 7.743,-3.203 13.079,-3.203 3.289,0 6.222,0.449 8.796,1.344 2.582,0.886 4.758,2.355 6.532,4.406 1.781,2.043 3.113,4.82 4,8.328 0.894,3.512 1.343,7.852 1.343,13.016 v 41.484 z" style="fill:#ffffff;fill-opacity:1;fill-rule:nonzero;stroke:none" id="path2274"/>
          <path d="m 1121.43,111.266 c 0,3.742 0.039,7.48 0.125,11.218 0.093,3.731 0.5,7.868 1.218,12.407 h -12.406 l -2.406,-8.672 h -0.531 c -1.782,3.105 -4.34,5.617 -7.672,7.531 -3.336,1.914 -7.274,2.875 -11.813,2.875 -8.355,0 -14.843,-2.754 -19.468,-8.266 -4.625,-5.519 -6.938,-14.148 -6.938,-25.89 0,-11.383 2.578,-20.235 7.734,-26.547 5.157,-6.313 12.711,-9.469 22.672,-9.469 2.758,0 5.032,0.156 6.813,0.469 1.781,0.305 3.554,0.812 5.328,1.531 V 41.359 h 17.344 z m -29.485,10.672 c 3.383,0 6.055,-0.821 8.016,-2.469 1.957,-1.645 3.332,-4.02 4.125,-7.125 V 84.062 c -1.242,-0.976 -2.617,-1.71 -4.125,-2.203 -1.512,-0.488 -3.469,-0.734 -5.875,-0.734 -4.898,0 -8.57,1.648 -11.016,4.937 -2.437,3.293 -3.656,8.938 -3.656,16.938 0,5.688 1,10.266 3,13.734 2,3.469 5.176,5.204 9.531,5.204 z" style="fill:#ffffff;fill-opacity:1;fill-rule:nonzero;stroke:none" id="path2276"/>
          <path d="m 1190.004,129.016 c -2.668,2.136 -6.293,3.937 -10.875,5.406 -4.586,1.469 -9.453,2.203 -14.609,2.203 -10.762,0 -18.633,-3.133 -23.61,-9.406 -4.98,-6.27 -7.469,-14.875 -7.469,-25.813 0,-11.75 2.801,-20.554 8.407,-26.422 5.601,-5.875 13.472,-8.812 23.609,-8.812 3.375,0 6.66,0.449 9.859,1.344 3.207,0.886 6.055,2.355 8.547,4.406 2.489,2.043 4.489,4.797 6,8.266 1.508,3.468 2.266,7.781 2.266,12.937 0,1.867 -0.109,3.867 -0.328,6 -0.219,2.137 -0.555,4.359 -1,6.672 h -40.016 c 0.258,5.605 1.703,9.836 4.328,12.687 2.625,2.844 6.875,4.266 12.75,4.266 3.645,0 6.91,-0.555 9.797,-1.672 2.895,-1.113 5.098,-2.25 6.61,-3.406 z m -24.813,-48.969 c -4.543,0 -7.902,1.359 -10.078,4.078 -2.179,2.711 -3.492,6.336 -3.937,10.875 h 24.812 c 0.364,-4.801 -0.371,-8.492 -2.203,-11.078 -1.824,-2.582 -4.687,-3.875 -8.594,-3.875 z" style="fill:#ffffff;fill-opacity:1;fill-rule:nonzero;stroke:none" id="path2278"/>
          <path d="M 1245.227,134.75 V 96.859 c 0,-5.425 -0.782,-9.336 -2.344,-11.734 -1.555,-2.406 -4.195,-3.609 -7.922,-3.609 -3.293,0 -6.074,0.961 -8.344,2.875 -2.262,1.906 -3.883,4.289 -4.859,7.14 v 43.219 h -17.344 V 68.047 h 13.734 l 2,8.812 h 0.532 c 2.05,-2.851 4.765,-5.347 8.14,-7.484 3.383,-2.133 7.742,-3.203 13.078,-3.203 3.29,0 6.223,0.449 8.797,1.344 2.582,0.886 4.758,2.355 6.532,4.406 1.781,2.043 3.113,4.82 4,8.328 0.894,3.512 1.343,7.852 1.343,13.016 v 41.484 z" style="fill:#ffffff;fill-opacity:1;fill-rule:nonzero;stroke:none" id="path2280"/>
          <path d="m 1313.934,84.328 c -2.762,-0.976 -5.25,-1.469 -7.469,-1.469 -3.117,0 -5.719,0.825 -7.813,2.469 -2.086,1.649 -3.48,3.758 -4.187,6.328 v 43.094 h -17.344 V 68.047 h 13.469 l 2,8.812 h 0.531 c 1.508,-3.289 3.555,-5.828 6.141,-7.609 2.582,-1.781 5.609,-2.672 9.078,-2.672 2.312,0 4.93,0.492 7.859,1.469 z" style="fill:#ffffff;fill-opacity:1;fill-rule:nonzero;stroke:none" id="path2282"/>
          <path d="m 1323.539,71.922 c 3.563,-1.602 7.785,-2.867 12.672,-3.797 4.894,-0.937 10.008,-1.406 15.344,-1.406 4.625,0 8.492,0.558 11.609,1.672 3.113,1.105 5.582,2.683 7.406,4.734 1.821,2.043 3.11,4.484 3.86,7.328 0.758,2.844 1.14,6.047 1.14,9.609 0,3.907 -0.136,7.84 -0.406,11.797 -0.262,3.961 -0.418,7.856 -0.469,11.688 -0.043,3.824 0.067,7.539 0.328,11.141 0.27,3.593 0.942,6.996 2.016,10.203 h -14.141 l -2.812,-9.219 h -0.656 c -1.782,2.762 -4.25,5.14 -7.407,7.14 -3.156,2 -7.226,3 -12.203,3 -3.117,0 -5.918,-0.464 -8.406,-1.39 -2.492,-0.938 -4.625,-2.27 -6.406,-4 -1.781,-1.738 -3.164,-3.785 -4.141,-6.141 -0.98,-2.351 -1.469,-5 -1.469,-7.937 0,-4.094 0.911,-7.539 2.735,-10.344 1.82,-2.801 4.445,-5.066 7.875,-6.797 3.426,-1.738 7.515,-2.941 12.265,-3.609 4.758,-0.664 10.079,-0.864 15.954,-0.594 0.625,-4.977 0.269,-8.555 -1.063,-10.734 -1.336,-2.188 -4.312,-3.282 -8.937,-3.282 -3.469,0 -7.141,0.36 -11.016,1.078 -3.867,0.711 -7.043,1.641 -9.531,2.797 z m 22.016,49.625 c 3.468,0 6.222,-0.774 8.265,-2.328 2.051,-1.563 3.563,-3.235 4.532,-5.016 v -8.672 c -2.75,-0.258 -5.399,-0.301 -7.938,-0.125 -2.531,0.18 -4.777,0.578 -6.734,1.203 -1.961,0.618 -3.516,1.5 -4.672,2.657 -1.156,1.156 -1.735,2.625 -1.735,4.406 0,2.492 0.735,4.43 2.204,5.812 1.468,1.375 3.492,2.063 6.078,2.063 z" style="fill:#ffffff;fill-opacity:1;fill-rule:nonzero;stroke:none" id="path2284"/>
          <path d="m 1383.176,68.047 h 9.203 V 55.5 l 17.344,-4.922 v 17.469 h 16.265 v 14.672 h -16.265 v 25.609 c 0,4.625 0.461,7.945 1.39,9.953 0.938,2 2.696,3 5.282,3 1.769,0 3.3,-0.176 4.593,-0.531 1.289,-0.363 2.739,-0.898 4.344,-1.609 l 3.063,13.343 c -2.399,1.157 -5.2,2.137 -8.407,2.938 -3.199,0.801 -6.445,1.203 -9.734,1.203 -6.137,0 -10.652,-1.578 -13.547,-4.734 -2.887,-3.164 -4.328,-8.348 -4.328,-15.547 V 82.719 h -9.203 z" style="fill:#ffffff;fill-opacity:1;fill-rule:nonzero;stroke:none" id="path2286"/>
          <path d="m 550.004,190.777 h -18.172 v 52.188 h -6.922 v -52.188 h -18.172 v -6.172 h 43.266 z" style="fill:#ffffff;fill-opacity:1;fill-rule:nonzero;stroke:none" id="path2288"/>
          <path d="m 577.699,239.637 c -1.679,1.336 -3.781,2.39 -6.312,3.172 -2.524,0.769 -5.199,1.156 -8.032,1.156 -3.167,0 -5.921,-0.512 -8.265,-1.531 -2.336,-1.032 -4.25,-2.504 -5.75,-4.422 -1.5,-1.926 -2.617,-4.223 -3.344,-6.891 -0.719,-2.664 -1.078,-5.664 -1.078,-9 0,-7.113 1.582,-12.531 4.75,-16.25 3.176,-3.726 7.707,-5.594 13.594,-5.594 1.894,0 3.785,0.211 5.672,0.625 1.894,0.418 3.593,1.211 5.093,2.375 1.5,1.168 2.719,2.825 3.657,4.969 0.945,2.137 1.421,4.953 1.421,8.453 0,1.836 -0.167,3.867 -0.5,6.094 H 551.84 c 0,2.437 0.25,4.605 0.75,6.5 0.5,1.887 1.273,3.484 2.328,4.797 1.062,1.305 2.441,2.305 4.141,3 1.695,0.699 3.765,1.047 6.203,1.047 1.894,0 3.785,-0.332 5.672,-1 1.894,-0.676 3.312,-1.457 4.25,-2.344 z m -14.344,-33.532 c -3.281,0 -5.914,0.868 -7.89,2.594 -1.969,1.719 -3.149,4.668 -3.531,8.844 h 20.671 c 0,-4.227 -0.808,-7.191 -2.421,-8.891 -1.606,-1.695 -3.883,-2.547 -6.829,-2.547 z" style="fill:#ffffff;fill-opacity:1;fill-rule:nonzero;stroke:none" id="path2290"/>
          <path d="m 617.125,240.215 c -1.668,1.219 -3.641,2.148 -5.922,2.781 -2.273,0.645 -4.656,0.969 -7.156,0.969 -3.231,0 -5.961,-0.512 -8.188,-1.531 -2.218,-1.032 -4.039,-2.504 -5.453,-4.422 -1.418,-1.926 -2.449,-4.235 -3.094,-6.922 -0.636,-2.695 -0.953,-5.688 -0.953,-8.969 0,-7.062 1.555,-12.469 4.672,-16.219 3.114,-3.75 7.586,-5.625 13.422,-5.625 2.676,0 4.942,0.211 6.797,0.625 1.863,0.418 3.547,1.016 5.047,1.797 l -1.922,5.75 c -1.273,-0.719 -2.687,-1.285 -4.25,-1.703 -1.555,-0.426 -3.219,-0.641 -5,-0.641 -7.898,0 -11.844,5.34 -11.844,16.016 0,2.117 0.207,4.133 0.625,6.047 0.414,1.918 1.11,3.617 2.078,5.094 0.977,1.468 2.258,2.652 3.844,3.547 1.582,0.886 3.539,1.328 5.875,1.328 2.008,0 3.805,-0.305 5.391,-0.922 1.582,-0.613 2.875,-1.313 3.875,-2.094 z" style="fill:#ffffff;fill-opacity:1;fill-rule:nonzero;stroke:none" id="path2292"/>
          <path d="m 653.07,242.965 v -23.766 c 0,-2.164 -0.125,-4.066 -0.375,-5.703 -0.25,-1.644 -0.711,-3.008 -1.375,-4.094 -0.668,-1.082 -1.574,-1.898 -2.718,-2.453 -1.137,-0.562 -2.622,-0.844 -4.454,-0.844 -2.617,0 -4.98,0.852 -7.093,2.547 -2.117,1.7 -3.477,3.883 -4.078,6.547 v 27.766 h -6.672 v -58.36 h 6.672 v 21.344 h 0.328 c 1.445,-1.726 3.179,-3.101 5.203,-4.125 2.031,-1.031 4.551,-1.547 7.562,-1.547 2.332,0 4.36,0.266 6.078,0.797 1.719,0.524 3.145,1.449 4.282,2.781 1.144,1.336 1.984,3.133 2.515,5.391 0.532,2.25 0.797,5.102 0.797,8.547 v 25.172 z" style="fill:#ffffff;fill-opacity:1;fill-rule:nonzero;stroke:none" id="path2294"/>
          <path d="m 698.676,242.965 v -23.766 c 0,-4.332 -0.625,-7.597 -1.875,-9.797 -1.25,-2.195 -3.547,-3.297 -6.891,-3.297 -2.937,0 -5.371,0.797 -7.297,2.391 -1.918,1.586 -3.261,3.57 -4.031,5.953 v 28.516 h -6.672 v -41.688 h 4.672 l 1.25,5.078 h 0.328 c 1.332,-1.769 3.125,-3.222 5.375,-4.359 2.25,-1.144 4.93,-1.719 8.047,-1.719 2.281,0 4.281,0.266 6,0.797 1.727,0.524 3.16,1.449 4.297,2.781 1.144,1.336 2.008,3.133 2.594,5.391 0.582,2.25 0.875,5.102 0.875,8.547 v 25.172 z" style="fill:#ffffff;fill-opacity:1;fill-rule:nonzero;stroke:none" id="path2296"/>
          <path d="m 718.941,201.277 h 6.657 v 41.688 h -6.657 z m -1.421,-12.672 c 0,-1.281 0.425,-2.378 1.281,-3.296 0.863,-0.914 1.961,-1.375 3.297,-1.375 1.332,0 2.472,0.461 3.422,1.375 0.945,0.918 1.421,2.015 1.421,3.296 0,1.282 -0.476,2.34 -1.421,3.172 -0.95,0.836 -2.09,1.25 -3.422,1.25 -1.336,0 -2.434,-0.414 -3.297,-1.25 -0.856,-0.832 -1.281,-1.89 -1.281,-3.172 z" style="fill:#ffffff;fill-opacity:1;fill-rule:nonzero;stroke:none" id="path2298"/>
          <path d="m 758.207,231.621 c 0,-1.664 -0.5,-2.969 -1.5,-3.906 -1,-0.945 -2.242,-1.738 -3.719,-2.375 -1.468,-0.645 -3.078,-1.258 -4.828,-1.844 -1.75,-0.582 -3.367,-1.332 -4.844,-2.25 -1.468,-0.914 -2.703,-2.098 -3.703,-3.547 -1,-1.445 -1.5,-3.39 -1.5,-5.828 0,-4.008 1.133,-6.941 3.407,-8.797 2.281,-1.863 5.453,-2.797 9.515,-2.797 3,0 5.516,0.266 7.547,0.797 2.031,0.524 3.797,1.149 5.297,1.875 l -1.594,5.5 c -1.273,-0.613 -2.812,-1.156 -4.625,-1.625 -1.805,-0.476 -3.734,-0.719 -5.797,-0.719 -2.449,0 -4.242,0.422 -5.375,1.266 -1.136,0.836 -1.703,2.277 -1.703,4.328 0,1.449 0.5,2.574 1.5,3.375 1,0.805 2.235,1.528 3.703,2.172 1.477,0.637 3.094,1.262 4.844,1.875 1.75,0.617 3.359,1.422 4.828,2.422 1.477,1 2.719,2.266 3.719,3.797 1,1.523 1.5,3.531 1.5,6.031 0,1.781 -0.293,3.453 -0.875,5.016 -0.586,1.554 -1.492,2.886 -2.719,4 -1.219,1.105 -2.734,1.976 -4.547,2.609 -1.804,0.645 -3.929,0.969 -6.375,0.969 -3.168,0 -5.867,-0.309 -8.093,-0.922 -2.219,-0.602 -4.079,-1.32 -5.579,-2.156 l 2,-5.672 c 1.282,0.719 2.946,1.387 5,2 2.063,0.617 4.149,0.922 6.266,0.922 2.383,0 4.352,-0.473 5.906,-1.422 1.563,-0.945 2.344,-2.645 2.344,-5.094 z" style="fill:#ffffff;fill-opacity:1;fill-rule:nonzero;stroke:none" id="path2300"/>
          <path d="m 803.387,240.215 c -1.668,1.219 -3.641,2.148 -5.922,2.781 -2.274,0.645 -4.656,0.969 -7.156,0.969 -3.231,0 -5.961,-0.512 -8.188,-1.531 -2.219,-1.032 -4.039,-2.504 -5.453,-4.422 -1.418,-1.926 -2.449,-4.235 -3.094,-6.922 -0.636,-2.695 -0.953,-5.688 -0.953,-8.969 0,-7.062 1.555,-12.469 4.672,-16.219 3.113,-3.75 7.586,-5.625 13.422,-5.625 2.676,0 4.941,0.211 6.797,0.625 1.863,0.418 3.547,1.016 5.047,1.797 l -1.922,5.75 c -1.274,-0.719 -2.688,-1.285 -4.25,-1.703 -1.555,-0.426 -3.219,-0.641 -5,-0.641 -7.899,0 -11.844,5.34 -11.844,16.016 0,2.117 0.207,4.133 0.625,6.047 0.414,1.918 1.109,3.617 2.078,5.094 0.977,1.468 2.258,2.652 3.844,3.547 1.582,0.886 3.539,1.328 5.875,1.328 2.008,0 3.805,-0.305 5.39,-0.922 1.583,-0.613 2.875,-1.313 3.875,-2.094 z" style="fill:#ffffff;fill-opacity:1;fill-rule:nonzero;stroke:none" id="path2302"/>
          <path d="m 839.336,242.965 v -23.766 c 0,-2.164 -0.125,-4.066 -0.375,-5.703 -0.25,-1.644 -0.711,-3.008 -1.375,-4.094 -0.668,-1.082 -1.574,-1.898 -2.719,-2.453 -1.137,-0.562 -2.621,-0.844 -4.453,-0.844 -2.617,0 -4.98,0.852 -7.094,2.547 -2.117,1.7 -3.476,3.883 -4.078,6.547 v 27.766 h -6.672 v -58.36 h 6.672 v 21.344 h 0.328 c 1.446,-1.726 3.18,-3.101 5.203,-4.125 2.032,-1.031 4.551,-1.547 7.563,-1.547 2.332,0 4.359,0.266 6.078,0.797 1.719,0.524 3.145,1.449 4.281,2.781 1.145,1.336 1.985,3.133 2.516,5.391 0.531,2.25 0.797,5.102 0.797,8.547 v 25.172 z" style="fill:#ffffff;fill-opacity:1;fill-rule:nonzero;stroke:none" id="path2304"/>
          <path d="m 888.613,239.637 c -1.679,1.336 -3.781,2.39 -6.312,3.172 -2.524,0.769 -5.199,1.156 -8.031,1.156 -3.168,0 -5.922,-0.512 -8.266,-1.531 -2.336,-1.032 -4.25,-2.504 -5.75,-4.422 -1.5,-1.926 -2.617,-4.223 -3.344,-6.891 -0.719,-2.664 -1.078,-5.664 -1.078,-9 0,-7.113 1.582,-12.531 4.75,-16.25 3.176,-3.726 7.707,-5.594 13.594,-5.594 1.894,0 3.785,0.211 5.672,0.625 1.894,0.418 3.593,1.211 5.093,2.375 1.5,1.168 2.719,2.825 3.657,4.969 0.945,2.137 1.422,4.953 1.422,8.453 0,1.836 -0.168,3.867 -0.5,6.094 h -26.766 c 0,2.437 0.25,4.605 0.75,6.5 0.5,1.887 1.273,3.484 2.328,4.797 1.063,1.305 2.441,2.305 4.141,3 1.695,0.699 3.765,1.047 6.203,1.047 1.894,0 3.785,-0.332 5.672,-1 1.894,-0.676 3.312,-1.457 4.25,-2.344 z M 874.27,206.105 c -3.282,0 -5.915,0.868 -7.891,2.594 -1.969,1.719 -3.149,4.668 -3.531,8.844 h 20.672 c 0,-4.227 -0.809,-7.191 -2.422,-8.891 -1.606,-1.695 -3.883,-2.547 -6.828,-2.547 z" style="fill:#ffffff;fill-opacity:1;fill-rule:nonzero;stroke:none" id="path2306"/>
          <path d="m 956.98,184.605 h 6.672 v 38.938 c 0,3.5 -0.464,6.531 -1.39,9.094 -0.918,2.554 -2.227,4.652 -3.922,6.297 -1.688,1.636 -3.731,2.843 -6.125,3.625 -2.387,0.769 -5.024,1.156 -7.906,1.156 -6.899,0 -12.094,-1.555 -15.594,-4.672 -3.5,-3.113 -5.25,-7.836 -5.25,-14.172 v -40.266 h 6.906 v 37.016 c 0,2.949 0.289,5.438 0.875,7.469 0.594,2.023 1.473,3.656 2.641,4.906 1.164,1.25 2.625,2.156 4.375,2.719 1.75,0.555 3.789,0.828 6.125,0.828 4.5,0 7.722,-1.234 9.672,-3.703 1.945,-2.477 2.921,-6.551 2.921,-12.219 z" style="fill:#ffffff;fill-opacity:1;fill-rule:nonzero;stroke:none" id="path2308"/>
          <path d="m 1003.922,242.965 v -23.766 c 0,-4.332 -0.625,-7.597 -1.875,-9.797 -1.25,-2.195 -3.547,-3.297 -6.891,-3.297 -2.937,0 -5.371,0.797 -7.297,2.391 -1.918,1.586 -3.261,3.57 -4.031,5.953 v 28.516 h -6.672 v -41.688 h 4.672 l 1.25,5.078 h 0.328 c 1.332,-1.769 3.125,-3.222 5.375,-4.359 2.25,-1.144 4.93,-1.719 8.047,-1.719 2.281,0 4.281,0.266 6,0.797 1.727,0.524 3.16,1.449 4.297,2.781 1.145,1.336 2.008,3.133 2.594,5.391 0.582,2.25 0.875,5.102 0.875,8.547 v 25.172 z" style="fill:#ffffff;fill-opacity:1;fill-rule:nonzero;stroke:none" id="path2310"/>
          <path d="m 1024.184,201.277 h 6.656 v 41.688 h -6.656 z m -1.422,-12.672 c 0,-1.281 0.426,-2.378 1.281,-3.296 0.863,-0.914 1.961,-1.375 3.297,-1.375 1.332,0 2.472,0.461 3.422,1.375 0.945,0.918 1.422,2.015 1.422,3.296 0,1.282 -0.477,2.34 -1.422,3.172 -0.95,0.836 -2.09,1.25 -3.422,1.25 -1.336,0 -2.434,-0.414 -3.297,-1.25 -0.855,-0.832 -1.281,-1.89 -1.281,-3.172 z" style="fill:#ffffff;fill-opacity:1;fill-rule:nonzero;stroke:none" id="path2312"/>
          <path d="m 1057.109,225.699 2.344,7.922 h 0.078 l 2.078,-8.078 9.344,-24.266 h 7.172 l -17.766,42.61 h -2.828 l -18.093,-42.61 h 7.671 z" style="fill:#ffffff;fill-opacity:1;fill-rule:nonzero;stroke:none" id="path2314"/>
          <path d="m 1114.816,239.637 c -1.679,1.336 -3.781,2.39 -6.312,3.172 -2.524,0.769 -5.199,1.156 -8.031,1.156 -3.168,0 -5.922,-0.512 -8.266,-1.531 -2.336,-1.032 -4.25,-2.504 -5.75,-4.422 -1.5,-1.926 -2.617,-4.223 -3.344,-6.891 -0.718,-2.664 -1.078,-5.664 -1.078,-9 0,-7.113 1.582,-12.531 4.75,-16.25 3.176,-3.726 7.707,-5.594 13.594,-5.594 1.894,0 3.785,0.211 5.672,0.625 1.894,0.418 3.594,1.211 5.094,2.375 1.5,1.168 2.718,2.825 3.656,4.969 0.945,2.137 1.422,4.953 1.422,8.453 0,1.836 -0.168,3.867 -0.5,6.094 h -26.766 c 0,2.437 0.25,4.605 0.75,6.5 0.5,1.887 1.273,3.484 2.328,4.797 1.063,1.305 2.442,2.305 4.141,3 1.695,0.699 3.765,1.047 6.203,1.047 1.894,0 3.785,-0.332 5.672,-1 1.894,-0.676 3.312,-1.457 4.25,-2.344 z m -14.343,-33.532 c -3.282,0 -5.914,0.868 -7.891,2.594 -1.969,1.719 -3.148,4.668 -3.531,8.844 h 20.672 c 0,-4.227 -0.809,-7.191 -2.422,-8.891 -1.606,-1.695 -3.883,-2.547 -6.828,-2.547 z" style="fill:#ffffff;fill-opacity:1;fill-rule:nonzero;stroke:none" id="path2316"/>
          <path d="m 1146.406,207.699 c -1.668,-0.551 -3.25,-0.828 -4.75,-0.828 -2.386,0 -4.277,0.652 -5.672,1.953 -1.386,1.305 -2.246,2.953 -2.578,4.953 v 29.188 h -6.672 v -41.688 h 4.672 l 1.25,5.078 h 0.328 c 1.051,-1.882 2.313,-3.335 3.782,-4.359 1.476,-1.031 3.359,-1.547 5.64,-1.547 1.614,0 3.422,0.278 5.422,0.828 z" style="fill:#ffffff;fill-opacity:1;fill-rule:nonzero;stroke:none" id="path2318"/>
          <path d="m 1173.426,231.621 c 0,-1.664 -0.5,-2.969 -1.5,-3.906 -1,-0.945 -2.242,-1.738 -3.719,-2.375 -1.469,-0.645 -3.078,-1.258 -4.828,-1.844 -1.75,-0.582 -3.367,-1.332 -4.844,-2.25 -1.469,-0.914 -2.703,-2.098 -3.703,-3.547 -1,-1.445 -1.5,-3.39 -1.5,-5.828 0,-4.008 1.133,-6.941 3.406,-8.797 2.282,-1.863 5.453,-2.797 9.516,-2.797 3,0 5.516,0.266 7.547,0.797 2.031,0.524 3.797,1.149 5.297,1.875 l -1.594,5.5 c -1.274,-0.613 -2.813,-1.156 -4.625,-1.625 -1.805,-0.476 -3.734,-0.719 -5.797,-0.719 -2.449,0 -4.242,0.422 -5.375,1.266 -1.137,0.836 -1.703,2.277 -1.703,4.328 0,1.449 0.5,2.574 1.5,3.375 1,0.805 2.234,1.528 3.703,2.172 1.477,0.637 3.094,1.262 4.844,1.875 1.75,0.617 3.359,1.422 4.828,2.422 1.476,1 2.719,2.266 3.719,3.797 1,1.523 1.5,3.531 1.5,6.031 0,1.781 -0.293,3.453 -0.875,5.016 -0.586,1.554 -1.493,2.886 -2.719,4 -1.219,1.105 -2.734,1.976 -4.547,2.609 -1.805,0.645 -3.93,0.969 -6.375,0.969 -3.168,0 -5.867,-0.309 -8.094,-0.922 -2.218,-0.602 -4.078,-1.32 -5.578,-2.156 l 2,-5.672 c 1.281,0.719 2.945,1.387 5,2 2.063,0.617 4.149,0.922 6.266,0.922 2.383,0 4.351,-0.473 5.906,-1.422 1.563,-0.945 2.344,-2.645 2.344,-5.094 z" style="fill:#ffffff;fill-opacity:1;fill-rule:nonzero;stroke:none" id="path2320"/>
          <path d="m 1191.605,201.277 h 6.657 v 41.688 h -6.657 z m -1.421,-12.672 c 0,-1.281 0.425,-2.378 1.281,-3.296 0.863,-0.914 1.961,-1.375 3.297,-1.375 1.332,0 2.472,0.461 3.422,1.375 0.945,0.918 1.421,2.015 1.421,3.296 0,1.282 -0.476,2.34 -1.421,3.172 -0.95,0.836 -2.09,1.25 -3.422,1.25 -1.336,0 -2.434,-0.414 -3.297,-1.25 -0.856,-0.832 -1.281,-1.89 -1.281,-3.172 z" style="fill:#ffffff;fill-opacity:1;fill-rule:nonzero;stroke:none" id="path2322"/>
          <path d="m 1207.031,201.277 h 6.5 v -8.25 l 6.672,-1.922 v 10.172 h 11.328 v 5.844 h -11.328 v 23.094 c 0,2.887 0.359,4.93 1.078,6.125 0.727,1.199 1.953,1.797 3.672,1.797 1.445,0 2.672,-0.149 3.672,-0.453 1,-0.313 2.109,-0.719 3.328,-1.219 l 1.5,5.078 c -1.5,0.73 -3.141,1.312 -4.922,1.75 -1.773,0.445 -3.687,0.672 -5.75,0.672 -3.386,0 -5.777,-0.961 -7.172,-2.875 -1.386,-1.914 -2.078,-5.125 -2.078,-9.625 v -24.344 h -6.5 z" style="fill:#ffffff;fill-opacity:1;fill-rule:nonzero;stroke:none" id="path2324"/>
          <path d="m 1240.125,204.355 c 2.113,-1.269 4.57,-2.21 7.375,-2.828 2.812,-0.613 5.742,-0.922 8.797,-0.922 2.894,0 5.219,0.391 6.969,1.172 1.75,0.782 3.082,1.797 4,3.047 0.914,1.25 1.523,2.625 1.828,4.125 0.312,1.5 0.468,3 0.468,4.5 0,3.336 -0.085,6.59 -0.25,9.766 -0.167,3.168 -0.25,6.168 -0.25,9 0,2.055 0.083,3.996 0.25,5.828 0.165,1.836 0.469,3.531 0.907,5.094 h -4.907 l -1.75,-5.844 h -0.421 c -0.5,0.781 -1.125,1.547 -1.875,2.297 -0.75,0.75 -1.657,1.418 -2.719,2 -1.055,0.586 -2.277,1.07 -3.672,1.453 -1.387,0.395 -2.965,0.594 -4.734,0.594 -1.782,0 -3.438,-0.278 -4.969,-0.828 -1.531,-0.563 -2.856,-1.352 -3.969,-2.375 -1.105,-1.032 -1.98,-2.27 -2.625,-3.719 -0.637,-1.445 -0.953,-3.086 -0.953,-4.922 0,-2.445 0.5,-4.488 1.5,-6.125 1,-1.645 2.398,-2.953 4.203,-3.922 1.813,-0.969 3.984,-1.66 6.516,-2.078 2.531,-0.414 5.32,-0.625 8.375,-0.625 0.781,0 1.547,0 2.297,0 0.75,0 1.515,0.055 2.296,0.156 0.165,-1.664 0.25,-3.164 0.25,-4.5 0,-3.051 -0.617,-5.187 -1.843,-6.406 -1.219,-1.227 -3.446,-1.844 -6.672,-1.844 -0.938,0 -1.953,0.074 -3.047,0.219 -1.086,0.137 -2.195,0.328 -3.328,0.578 -1.137,0.25 -2.219,0.559 -3.25,0.922 -1.031,0.355 -1.934,0.758 -2.703,1.203 z m 11.844,33.438 c 1.551,0 2.937,-0.207 4.156,-0.625 1.227,-0.414 2.285,-0.941 3.172,-1.578 0.894,-0.645 1.633,-1.352 2.219,-2.125 0.582,-0.781 1.015,-1.531 1.296,-2.25 v -6.922 c -0.781,-0.063 -1.578,-0.102 -2.39,-0.125 -0.805,-0.031 -1.594,-0.047 -2.375,-0.047 -1.719,0 -3.402,0.102 -5.047,0.297 -1.637,0.187 -3.078,0.547 -4.328,1.078 -1.25,0.531 -2.25,1.258 -3,2.172 -0.75,0.918 -1.125,2.07 -1.125,3.453 0,1.949 0.691,3.547 2.078,4.797 1.395,1.25 3.176,1.875 5.344,1.875 z m -8.844,-49.266 c 0,-1.281 0.375,-2.312 1.125,-3.093 0.75,-0.782 1.738,-1.172 2.969,-1.172 1.219,0 2.203,0.39 2.953,1.172 0.75,0.781 1.125,1.812 1.125,3.093 0,1.168 -0.375,2.141 -1.125,2.922 -0.75,0.774 -1.734,1.156 -2.953,1.156 -1.231,0 -2.219,-0.382 -2.969,-1.156 -0.75,-0.781 -1.125,-1.754 -1.125,-2.922 z m 16.016,0 c 0,-1.281 0.375,-2.312 1.125,-3.093 0.75,-0.782 1.734,-1.172 2.953,-1.172 1.281,0 2.297,0.39 3.047,1.172 0.75,0.781 1.125,1.812 1.125,3.093 0,1.168 -0.375,2.141 -1.125,2.922 -0.75,0.774 -1.766,1.156 -3.047,1.156 -1.219,0 -2.203,-0.382 -2.953,-1.156 -0.75,-0.781 -1.125,-1.754 -1.125,-2.922 z" style="fill:#ffffff;fill-opacity:1;fill-rule:nonzero;stroke:none" id="path2326"/>
          <path d="m 1276.648,201.277 h 6.5 v -8.25 l 6.672,-1.922 v 10.172 h 11.328 v 5.844 h -11.328 v 23.094 c 0,2.887 0.36,4.93 1.078,6.125 0.727,1.199 1.954,1.797 3.672,1.797 1.446,0 2.672,-0.149 3.672,-0.453 1,-0.313 2.11,-0.719 3.328,-1.219 l 1.5,5.078 c -1.5,0.73 -3.14,1.312 -4.922,1.75 -1.773,0.445 -3.687,0.672 -5.75,0.672 -3.386,0 -5.777,-0.961 -7.171,-2.875 -1.387,-1.914 -2.079,-5.125 -2.079,-9.625 v -24.344 h -6.5 z" style="fill:#ffffff;fill-opacity:1;fill-rule:nonzero;stroke:none" id="path2328"/>
          <path d="m 1334.926,184.605 h 6.922 v 58.359 h -6.922 z" style="fill:#ffffff;fill-opacity:1;fill-rule:nonzero;stroke:none" id="path2330"/>
          <path d="m 1364.359,232.715 c 0,1.937 0.332,3.328 1,4.172 0.664,0.836 1.61,1.25 2.829,1.25 0.726,0 1.507,-0.055 2.343,-0.172 0.832,-0.113 1.774,-0.363 2.828,-0.75 l 0.75,5.25 c -0.886,0.449 -2.121,0.805 -3.703,1.078 -1.586,0.281 -2.961,0.422 -4.125,0.422 -2.511,0 -4.574,-0.711 -6.187,-2.125 -1.606,-1.414 -2.406,-3.82 -2.406,-7.219 v -50.016 h 6.671 z" style="fill:#ffffff;fill-opacity:1;fill-rule:nonzero;stroke:none" id="path2332"/>
          <path d="m 1405.707,242.965 v -23.594 c 0,-2.226 -0.102,-4.16 -0.297,-5.797 -0.187,-1.633 -0.562,-3.008 -1.125,-4.125 -0.555,-1.113 -1.344,-1.945 -2.375,-2.5 -1.023,-0.562 -2.367,-0.844 -4.031,-0.844 -2.563,0 -4.695,0.782 -6.391,2.344 -1.687,1.555 -2.867,3.496 -3.531,5.828 v 28.688 h -6.672 v -41.688 h 4.672 l 1.25,5.078 h 0.328 c 1.5,-1.769 3.235,-3.222 5.203,-4.359 1.977,-1.144 4.551,-1.719 7.719,-1.719 2.664,0 4.848,0.516 6.547,1.547 1.695,1.024 3.016,2.813 3.953,5.375 1.281,-2.164 3.047,-3.859 5.297,-5.078 2.25,-1.226 4.797,-1.844 7.641,-1.844 2.332,0 4.3,0.266 5.906,0.797 1.613,0.524 2.945,1.449 4,2.781 1.062,1.336 1.828,3.141 2.297,5.422 0.476,2.282 0.718,5.172 0.718,8.672 v 25.016 h -6.671 v -25.094 c 0,-2 -0.102,-3.734 -0.297,-5.203 -0.2,-1.477 -0.59,-2.703 -1.172,-3.672 -0.586,-0.976 -1.391,-1.703 -2.422,-2.172 -1.024,-0.476 -2.367,-0.719 -4.031,-0.719 -2.782,0 -4.953,0.782 -6.516,2.344 -1.555,1.555 -2.664,3.778 -3.328,6.672 v 27.844 z" style="fill:#ffffff;fill-opacity:1;fill-rule:nonzero;stroke:none" id="path2334"/>
          <path d="m 1479.426,239.637 c -1.68,1.336 -3.781,2.39 -6.313,3.172 -2.523,0.769 -5.199,1.156 -8.031,1.156 -3.168,0 -5.922,-0.512 -8.266,-1.531 -2.336,-1.032 -4.25,-2.504 -5.75,-4.422 -1.5,-1.926 -2.617,-4.223 -3.343,-6.891 -0.719,-2.664 -1.078,-5.664 -1.078,-9 0,-7.113 1.582,-12.531 4.75,-16.25 3.175,-3.726 7.707,-5.594 13.593,-5.594 1.895,0 3.785,0.211 5.672,0.625 1.895,0.418 3.594,1.211 5.094,2.375 1.5,1.168 2.719,2.825 3.656,4.969 0.945,2.137 1.422,4.953 1.422,8.453 0,1.836 -0.168,3.867 -0.5,6.094 h -26.766 c 0,2.437 0.25,4.605 0.75,6.5 0.5,1.887 1.274,3.484 2.329,4.797 1.062,1.305 2.441,2.305 4.14,3 1.695,0.699 3.766,1.047 6.203,1.047 1.895,0 3.785,-0.332 5.672,-1 1.895,-0.676 3.313,-1.457 4.25,-2.344 z m -14.344,-33.532 c -3.281,0 -5.914,0.868 -7.891,2.594 -1.968,1.719 -3.148,4.668 -3.531,8.844 h 20.672 c 0,-4.227 -0.809,-7.191 -2.422,-8.891 -1.605,-1.695 -3.883,-2.547 -6.828,-2.547 z" style="fill:#ffffff;fill-opacity:1;fill-rule:nonzero;stroke:none" id="path2336"/>
          <path d="m 1518.109,242.965 v -23.766 c 0,-4.332 -0.625,-7.597 -1.875,-9.797 -1.25,-2.195 -3.546,-3.297 -6.89,-3.297 -2.938,0 -5.371,0.797 -7.297,2.391 -1.918,1.586 -3.262,3.57 -4.031,5.953 v 28.516 h -6.672 v -41.688 h 4.672 l 1.25,5.078 h 0.328 c 1.332,-1.769 3.125,-3.222 5.375,-4.359 2.25,-1.144 4.929,-1.719 8.047,-1.719 2.281,0 4.281,0.266 6,0.797 1.726,0.524 3.16,1.449 4.296,2.781 1.145,1.336 2.008,3.133 2.594,5.391 0.582,2.25 0.875,5.102 0.875,8.547 v 25.172 z" style="fill:#ffffff;fill-opacity:1;fill-rule:nonzero;stroke:none" id="path2338"/>
          <path d="m 1536.277,204.355 c 2.114,-1.269 4.571,-2.21 7.375,-2.828 2.813,-0.613 5.743,-0.922 8.797,-0.922 2.895,0 5.219,0.391 6.969,1.172 1.75,0.782 3.082,1.797 4,3.047 0.914,1.25 1.523,2.625 1.828,4.125 0.313,1.5 0.469,3 0.469,4.5 0,3.336 -0.086,6.59 -0.25,9.766 -0.168,3.168 -0.25,6.168 -0.25,9 0,2.055 0.082,3.996 0.25,5.828 0.164,1.836 0.469,3.531 0.906,5.094 h -4.906 l -1.75,-5.844 h -0.422 c -0.5,0.781 -1.125,1.547 -1.875,2.297 -0.75,0.75 -1.656,1.418 -2.719,2 -1.054,0.586 -2.277,1.07 -3.672,1.453 -1.386,0.395 -2.965,0.594 -4.734,0.594 -1.781,0 -3.438,-0.278 -4.969,-0.828 -1.531,-0.563 -2.855,-1.352 -3.969,-2.375 -1.105,-1.032 -1.98,-2.27 -2.625,-3.719 -0.636,-1.445 -0.953,-3.086 -0.953,-4.922 0,-2.445 0.5,-4.488 1.5,-6.125 1,-1.645 2.399,-2.953 4.203,-3.922 1.813,-0.969 3.985,-1.66 6.516,-2.078 2.531,-0.414 5.32,-0.625 8.375,-0.625 0.781,0 1.547,0 2.297,0 0.75,0 1.516,0.055 2.297,0.156 0.164,-1.664 0.25,-3.164 0.25,-4.5 0,-3.051 -0.617,-5.187 -1.844,-6.406 -1.219,-1.227 -3.445,-1.844 -6.672,-1.844 -0.937,0 -1.953,0.074 -3.047,0.219 -1.086,0.137 -2.195,0.328 -3.328,0.578 -1.136,0.25 -2.219,0.559 -3.25,0.922 -1.031,0.355 -1.933,0.758 -2.703,1.203 z m 11.844,33.438 c 1.551,0 2.938,-0.207 4.156,-0.625 1.227,-0.414 2.285,-0.941 3.172,-1.578 0.895,-0.645 1.633,-1.352 2.219,-2.125 0.582,-0.781 1.016,-1.531 1.297,-2.25 v -6.922 c -0.781,-0.063 -1.578,-0.102 -2.391,-0.125 -0.804,-0.031 -1.594,-0.047 -2.375,-0.047 -1.719,0 -3.402,0.102 -5.047,0.297 -1.636,0.187 -3.078,0.547 -4.328,1.078 -1.25,0.531 -2.25,1.258 -3,2.172 -0.75,0.918 -1.125,2.07 -1.125,3.453 0,1.949 0.692,3.547 2.078,4.797 1.395,1.25 3.176,1.875 5.344,1.875 z" style="fill:#ffffff;fill-opacity:1;fill-rule:nonzero;stroke:none" id="path2340"/>
          <path d="m 1584.305,201.277 v 23.766 c 0,2.168 0.125,4.074 0.375,5.719 0.25,1.636 0.675,2.996 1.281,4.078 0.613,1.086 1.445,1.906 2.5,2.469 1.062,0.554 2.398,0.828 4.016,0.828 1.5,0 2.832,-0.235 4,-0.703 1.164,-0.477 2.207,-1.133 3.125,-1.969 0.914,-0.832 1.722,-1.789 2.421,-2.875 0.696,-1.082 1.266,-2.238 1.704,-3.469 v -27.844 h 6.671 v 29.844 c 0,2 0.067,4.074 0.204,6.219 0.144,2.137 0.382,4.012 0.718,5.625 h -4.593 l -1.657,-6.594 h -0.422 c -1.281,2.18 -3.007,3.992 -5.171,5.438 -2.168,1.437 -4.918,2.156 -8.25,2.156 -2.219,0 -4.18,-0.266 -5.875,-0.797 -1.7,-0.52 -3.122,-1.445 -4.266,-2.781 -1.137,-1.332 -1.996,-3.125 -2.578,-5.375 -0.586,-2.258 -0.875,-5.114 -0.875,-8.563 v -25.172 z" style="fill:#ffffff;fill-opacity:1;fill-rule:nonzero;stroke:none" id="path2342"/>
        </g>
      </g>
    </g>
  </g>
</svg>